<svg width="40" height="40" viewBox="0 0 40 40" fill="none" xmlns="http://www.w3.org/2000/svg">
<g id="&#240;&#159;&#166;&#134; icon &#34;shopping cart outline&#34;">
<g id="Group">
<path id="Vector" d="M35.134 11.6667C34.846 11.1677 34.4336 10.7519 33.9371 10.4598C33.4405 10.1677 32.8767 10.0093 32.3007 10H10.9673L10.0007 6.23333C9.90298 5.86973 9.68509 5.54991 9.38245 5.32595C9.07981 5.102 8.71026 4.98711 8.33398 5H5.00065C4.55862 5 4.1347 5.1756 3.82214 5.48816C3.50958 5.80072 3.33398 6.22464 3.33398 6.66667C3.33398 7.1087 3.50958 7.53262 3.82214 7.84518C4.1347 8.15774 4.55862 8.33333 5.00065 8.33333H7.06732L11.6673 25.4333C11.765 25.7969 11.9829 26.1168 12.2855 26.3407C12.5882 26.5647 12.9577 26.6796 13.334 26.6667H28.334C28.6418 26.6657 28.9433 26.5796 29.2051 26.4178C29.4669 26.256 29.6788 26.0249 29.8173 25.75L35.284 14.8167C35.5209 14.32 35.6312 13.7725 35.6051 13.2228C35.5789 12.6732 35.417 12.1385 35.134 11.6667ZM27.3007 23.3333H14.6007L11.884 13.3333H32.3007L27.3007 23.3333Z" fill="#1F71BC"/>
<path id="Vector_2" d="M12.5 35C13.8807 35 15 33.8807 15 32.5C15 31.1193 13.8807 30 12.5 30C11.1193 30 10 31.1193 10 32.5C10 33.8807 11.1193 35 12.5 35Z" fill="#1F71BC"/>
<path id="Vector_3" d="M29.168 35C30.5487 35 31.668 33.8807 31.668 32.5C31.668 31.1193 30.5487 30 29.168 30C27.7873 30 26.668 31.1193 26.668 32.5C26.668 33.8807 27.7873 35 29.168 35Z" fill="#1F71BC"/>
</g>
</g>
</svg>
