<svg width="26" height="25" viewBox="0 0 26 25" fill="none" xmlns="http://www.w3.org/2000/svg">
<g id="Vector">
<mask id="path-1-inside-1_3805_551" fill="white">
<path d="M25.3077 23.203L17.1921 15.0874C18.4515 13.4593 19.1327 11.4687 19.1327 9.37496C19.1327 6.86872 18.1546 4.51873 16.3859 2.74686C14.6171 0.974996 12.2609 0 9.75777 0C7.25466 0 4.89842 0.978121 3.12968 2.74686C1.35781 4.5156 0.382812 6.86872 0.382812 9.37496C0.382812 11.8781 1.36093 14.2343 3.12968 16.0031C4.89842 17.7749 7.25153 18.7499 9.75777 18.7499C11.8515 18.7499 13.839 18.0687 15.4671 16.8124L23.5827 24.9249C23.6065 24.9487 23.6348 24.9676 23.6659 24.9805C23.697 24.9934 23.7303 25 23.764 25C23.7976 25 23.831 24.9934 23.8621 24.9805C23.8932 24.9676 23.9214 24.9487 23.9452 24.9249L25.3077 23.5655C25.3315 23.5417 25.3504 23.5135 25.3633 23.4824C25.3762 23.4513 25.3828 23.4179 25.3828 23.3843C25.3828 23.3506 25.3762 23.3173 25.3633 23.2862C25.3504 23.2551 25.3315 23.2268 25.3077 23.203ZM14.7078 14.3249C13.3828 15.6468 11.6265 16.3749 9.75777 16.3749C7.88903 16.3749 6.13279 15.6468 4.80779 14.3249C3.48592 12.9999 2.7578 11.2437 2.7578 9.37496C2.7578 7.50622 3.48592 5.74685 4.80779 4.42498C6.13279 3.10311 7.88903 2.37499 9.75777 2.37499C11.6265 2.37499 13.3859 3.09999 14.7078 4.42498C16.0296 5.74998 16.7577 7.50622 16.7577 9.37496C16.7577 11.2437 16.0296 13.0031 14.7078 14.3249Z"/>
</mask>
<path d="M25.3077 23.203L17.1921 15.0874C18.4515 13.4593 19.1327 11.4687 19.1327 9.37496C19.1327 6.86872 18.1546 4.51873 16.3859 2.74686C14.6171 0.974996 12.2609 0 9.75777 0C7.25466 0 4.89842 0.978121 3.12968 2.74686C1.35781 4.5156 0.382812 6.86872 0.382812 9.37496C0.382812 11.8781 1.36093 14.2343 3.12968 16.0031C4.89842 17.7749 7.25153 18.7499 9.75777 18.7499C11.8515 18.7499 13.839 18.0687 15.4671 16.8124L23.5827 24.9249C23.6065 24.9487 23.6348 24.9676 23.6659 24.9805C23.697 24.9934 23.7303 25 23.764 25C23.7976 25 23.831 24.9934 23.8621 24.9805C23.8932 24.9676 23.9214 24.9487 23.9452 24.9249L25.3077 23.5655C25.3315 23.5417 25.3504 23.5135 25.3633 23.4824C25.3762 23.4513 25.3828 23.4179 25.3828 23.3843C25.3828 23.3506 25.3762 23.3173 25.3633 23.2862C25.3504 23.2551 25.3315 23.2268 25.3077 23.203ZM14.7078 14.3249C13.3828 15.6468 11.6265 16.3749 9.75777 16.3749C7.88903 16.3749 6.13279 15.6468 4.80779 14.3249C3.48592 12.9999 2.7578 11.2437 2.7578 9.37496C2.7578 7.50622 3.48592 5.74685 4.80779 4.42498C6.13279 3.10311 7.88903 2.37499 9.75777 2.37499C11.6265 2.37499 13.3859 3.09999 14.7078 4.42498C16.0296 5.74998 16.7577 7.50622 16.7577 9.37496C16.7577 11.2437 16.0296 13.0031 14.7078 14.3249Z" fill="#00AEEF"/>
<path d="M17.1921 15.0874L14.8657 13.2879L13.2814 15.3361L15.1124 17.1672L17.1921 15.0874ZM3.12968 2.74686L5.20757 4.82842L5.2094 4.82659L3.12968 2.74686ZM3.12968 16.0031L5.21124 13.9252L5.2094 13.9233L3.12968 16.0031ZM15.4671 16.8124L17.5464 14.7323L15.7176 12.9042L13.6704 14.4838L15.4671 16.8124ZM23.5827 24.9249L25.6631 22.8458L25.662 22.8448L23.5827 24.9249ZM23.764 25V27.9412V25ZM23.9452 24.9249L21.8679 22.8428L21.8649 22.8458L23.9452 24.9249ZM25.3077 23.5655L27.385 25.6476L27.3868 25.6459L25.3077 23.5655ZM25.3077 23.203L23.228 25.2827L23.2286 25.2834L25.3077 23.203ZM14.7078 14.3249L16.785 16.4071L16.7875 16.4047L14.7078 14.3249ZM4.80779 14.3249L2.72561 16.4022L2.73052 16.4071L4.80779 14.3249ZM4.80779 4.42498L2.73052 2.3428L2.72807 2.34526L4.80779 4.42498ZM27.3874 21.1233L19.2718 13.0077L15.1124 17.1672L23.228 25.2827L27.3874 21.1233ZM19.5185 16.887C21.1793 14.7399 22.0739 12.1154 22.0739 9.37496H16.1916C16.1916 10.822 15.7237 12.1787 14.8657 13.2879L19.5185 16.887ZM22.0739 9.37496C22.0739 6.08523 20.7835 2.98919 18.4674 0.668974L14.3043 4.82475C15.5257 6.04827 16.1916 7.65221 16.1916 9.37496H22.0739ZM18.4674 0.668974C16.1458 -1.6568 13.0401 -2.94118 9.75777 -2.94118V2.94118C11.4816 2.94118 13.0885 3.60679 14.3043 4.82475L18.4674 0.668974ZM9.75777 -2.94118C6.47318 -2.94118 3.36926 -1.65217 1.04995 0.667137L5.2094 4.82659C6.42758 3.60841 8.03614 2.94118 9.75777 2.94118V-2.94118ZM1.05179 0.665302C-1.27362 2.9866 -2.55836 6.08895 -2.55836 9.37496H3.32399C3.32399 7.64849 3.98923 6.04461 5.20756 4.82842L1.05179 0.665302ZM-2.55836 9.37496C-2.55836 12.6596 -1.26936 15.7635 1.04995 18.0828L5.2094 13.9233C3.99122 12.7052 3.32399 11.0966 3.32399 9.37496H-2.55836ZM1.04811 18.0809C3.36942 20.4063 6.47176 21.6911 9.75777 21.6911V15.8087C8.0313 15.8087 6.42742 15.1435 5.21124 13.9252L1.04811 18.0809ZM9.75777 21.6911C12.499 21.6911 15.1189 20.796 17.2638 19.141L13.6704 14.4838C12.5591 15.3413 11.204 15.8087 9.75777 15.8087V21.6911ZM13.3878 18.8926L21.5034 27.005L25.662 22.8448L17.5464 14.7323L13.3878 18.8926ZM21.5024 27.004C21.7993 27.3011 22.1518 27.5368 22.5399 27.6976L24.7918 22.2634C25.1177 22.3984 25.4138 22.5963 25.6631 22.8458L21.5024 27.004ZM22.5399 27.6976C22.9279 27.8584 23.3438 27.9412 23.764 27.9412V22.0588C24.1167 22.0588 24.466 22.1283 24.7918 22.2634L22.5399 27.6976ZM23.764 27.9412C24.1841 27.9412 24.6 27.8584 24.988 27.6976L22.7361 22.2634C23.0619 22.1284 23.4112 22.0588 23.764 22.0588V27.9412ZM24.988 27.6976C25.3761 27.5368 25.7286 27.3011 26.0256 27.004L21.8649 22.8458C22.1142 22.5963 22.4103 22.3984 22.7361 22.2634L24.988 27.6976ZM26.0225 27.007L27.385 25.6476L23.2304 21.4834L21.8679 22.8428L26.0225 27.007ZM27.3868 25.6459C27.6839 25.349 27.9196 24.9964 28.0804 24.6083L22.6462 22.3564C22.7812 22.0305 22.9792 21.7345 23.2286 21.4852L27.3868 25.6459ZM28.0804 24.6083C28.2412 24.2203 28.324 23.8044 28.324 23.3843H22.4416C22.4416 23.0315 22.5112 22.6822 22.6462 22.3564L28.0804 24.6083ZM28.324 23.3843C28.324 22.9641 28.2412 22.5482 28.0804 22.1602L22.6462 24.4121C22.5112 24.0863 22.4416 23.7371 22.4416 23.3843H28.324ZM28.0804 22.1602C27.9196 21.7722 27.6839 21.4196 27.3868 21.1227L23.2286 25.2834C22.9791 25.034 22.7812 24.738 22.6462 24.4121L28.0804 22.1602ZM12.6305 12.2428C11.855 13.0164 10.845 13.4338 9.75777 13.4338V19.3161C12.408 19.3161 14.9105 18.2772 16.785 16.4071L12.6305 12.2428ZM9.75777 13.4338C8.67054 13.4338 7.66057 13.0164 6.88506 12.2428L2.73052 16.4071C4.605 18.2772 7.10752 19.3161 9.75777 19.3161V13.4338ZM6.88997 12.2477C6.11629 11.4722 5.69898 10.4622 5.69898 9.37496H-0.183374C-0.183374 12.0252 0.855555 14.5277 2.72561 16.4022L6.88997 12.2477ZM5.69898 9.37496C5.69898 8.28573 6.11761 7.27462 6.88752 6.50471L2.72807 2.34526C0.854243 4.21908 -0.183374 6.7267 -0.183374 9.37496H5.69898ZM6.88506 6.50716C7.66057 5.73348 8.67054 5.31617 9.75777 5.31617V-0.566187C7.10752 -0.566187 4.605 0.472743 2.73052 2.3428L6.88506 6.50716ZM9.75777 5.31617C10.85 5.31617 11.8588 5.73368 12.6256 6.50225L16.7899 2.34771C14.9129 0.466294 12.403 -0.566187 9.75777 -0.566187V5.31617ZM12.6256 6.50225C13.3993 7.27776 13.8166 8.28773 13.8166 9.37496H19.6989C19.6989 6.7247 18.66 4.22219 16.7899 2.34771L12.6256 6.50225ZM13.8166 9.37496C13.8166 10.4642 13.3979 11.4753 12.628 12.2452L16.7875 16.4047C18.6613 14.5308 19.6989 12.0232 19.6989 9.37496H13.8166Z" fill="#1F71BC" mask="url(#path-1-inside-1_3805_551)"/>
</g>
</svg>
